<svg
  xmlns="http://www.w3.org/2000/svg"
  width="512"
  height="512"
  viewBox="0 0 2500 2500"
>
  <g fill="rgb(0,16,38)">
    <g>
      <path
        d="M1770 2090 c0 -407 0 -411 -20 -400 -20 10 -20 6 -22 -349 l-3 -359 -250 134 -250 134 -70 0 -70 0 -230 -123 c-203 -109 -230 -127 -233 -150 -3 -23 -24 -37 -158 -108 -129 -68 -154 -85 -154 -104 0 -20 56 -53 408 -241 336 -180 414 -218 447 -218 33 0 111 38 440 213 220 118 406 221 413 229 9 12 12 204 12 884 l0 868 -130 0 -130 0 0 -410z"
      ></path>
    </g>
  </g>
  <g fill="rgb(24,37,60)">
    <g>
      <path
        d="M933 1797 l-313 -182 0 -327 c0 -181 2 -328 5 -328 3 0 115 58 248 130 193 103 251 130 282 130 31 0 94 -29 311 -145 149 -80 277 -145 283 -145 8 0 11 104 11 378 l0 377 -254 148 c-140 81 -256 147 -258 147 -1 -1 -144 -83 -315 -183z"
      ></path>
    </g>
  </g>
</svg>
